<svg xmlns="http://www.w3.org/2000/svg" viewBox="0 0 1920 720"><defs><style>.cls-1{fill:#563de8;}.cls-2,.cls-3{fill:#fff;}.cls-3{font-size:173.76px;font-family:PalatinoLinotype-Roman, Palatino Linotype;}.cls-4{letter-spacing:-0.07em;}.cls-5{letter-spacing:0em;}.cls-6{letter-spacing:-0.04em;}.cls-7{letter-spacing:-0.1em;}</style></defs><g id="Слой_1" data-name="Слой 1"><rect class="cls-1" width="1920" height="720"/></g><g id="Слой_2" data-name="Слой 2"><path class="cls-2" d="M82.21,237.79a224.62,224.62,0,0,0,0,248.7Z"/><path class="cls-2" d="M206.85,233.52a224.62,224.62,0,0,0,0,248.7Z"/><path class="cls-2" d="M206.85,234.08v40.77c15.23,24.15,54.32,52.24,53.55,82.92s-37.12,59.51-53.55,82.86v41.88c24.61-35,79.09-78.19,80.25-124.17S229.68,270.27,206.85,234.08Z"/><path class="cls-2" d="M82.21,388.6c14.88-22.32,73.92-44.3,73.92-73.14s-59-55.64-73.92-78Z"/><path class="cls-2" d="M346.86,237.79a224.62,224.62,0,0,0,0,248.7Z"/><path class="cls-2" d="M346.86,388.6c14.88-22.32,73.93-44.3,73.93-73.14s-59.05-55.64-73.93-78Z"/><path class="cls-2" d="M448.55,377.12"/><path class="cls-2" d="M599.89,283.67,583,302.26c-23.19,5.82-78.22-11.85-95.5,7.19s8.54,68.91,5,92.56l-17,18.75c4.89-32.5-30.59-101.05-6.85-127.21S568,291.67,599.89,283.67Z"/><path class="cls-2" d="M489.23,371.73h-5.31V356H473.46v15.69h-4.11c4.71,25.16,16.94,58.08,3.64,72.73-17.27,19-72.31,1.37-95.5,7.19l-16.86,18.59c31.87-8,107.51,16.29,131.25-9.88C508.21,442.36,496.52,404.31,489.23,371.73Z"/><text class="cls-3" transform="translate(618.95 415.49)"><tspan class="cls-4">P</tspan><tspan class="cls-5" x="93.42" y="0">AŠPĀ</tspan><tspan class="cls-6" x="559.9" y="0">R</tspan><tspan class="cls-7" x="669.18" y="0">V</tspan><tspan x="778.12" y="0">ALDE</tspan></text></g></svg>