<svg id="Слой_1" data-name="Слой 1" xmlns="http://www.w3.org/2000/svg" viewBox="0 0 1000 1000"><defs><style>.cls-1{fill:#563de8;}.cls-2{fill:#f2f2f2;}</style></defs><rect class="cls-1" width="1000" height="1000"/><path class="cls-2" d="M117.83,305.44a357.56,357.56,0,0,0,0,395.92Z"/><path class="cls-2" d="M316.26,298.64a357.56,357.56,0,0,0,0,395.92Z"/><path class="cls-2" d="M316.26,299.53v64.91c24.25,38.44,86.47,83.16,85.25,132s-59.11,94.74-85.25,131.91V695C355.44,639.32,442.17,570.55,444,497.35S352.6,357.14,316.26,299.53Z"/><path class="cls-2" d="M117.83,545.53C141.51,510,235.51,475,235.51,429.09S141.51,340.5,117.83,305Z"/><path class="cls-2" d="M539.16,305.44a357.51,357.51,0,0,0,0,395.92Z"/><path class="cls-2" d="M539.16,545.53C562.84,510,656.84,475,656.84,429.09S562.84,340.5,539.16,305Z"/><path class="cls-2" d="M701,527.24"/><path class="cls-2" d="M942,378.48l-26.85,29.59c-36.92,9.27-124.54-18.86-152,11.44S776.67,529.22,771,566.87l-27.1,29.86C751.69,545,695.22,435.85,733,394.2S891.23,391.22,942,378.48Z"/><path class="cls-2" d="M765.8,518.66h-8.45v-25H740.7v25h-6.55c7.51,40.07,27,92.48,5.8,115.8-27.5,30.3-115.11,2.17-152,11.44l-26.86,29.59c50.75-12.74,171.17,25.93,209-15.72C796,631.12,777.42,570.53,765.8,518.66Z"/></svg>